<svg id="Layer_1" data-name="Layer 1" xmlns="http://www.w3.org/2000/svg" viewBox="0 0 844.09 485.02"><defs><style>.cls-1{fill:#b30e1c;}.cls-2{fill:#929292;}</style></defs><title>Artboard 3</title><path class="cls-1" d="M502.31,296.79H456.47l-68.6-110.86c-1.45,1.36-2.45,2.14-3.26,3.08q-19.91,23.27-39.77,46.57-25.23,29.56-50.44,59.13a7.94,7.94,0,0,1-6.52,3c-14.69-.06-29.38,0-44.07-.05a29.78,29.78,0,0,1-4.23-.65,25.62,25.62,0,0,1,1.75-2.83q25.07-29.46,50.16-58.9c12-14.1,23.84-28.31,35.78-42.43q19.65-23.25,39.37-46.45c.23-.27.47-.54.69-.82,5.89-7.06,3.44-6.33,13.41-6.39,6.92,0,13.85.11,20.78,0a6.64,6.64,0,0,1,6.39,3.6c9,14.78,18.22,29.45,27.29,44.2,11.39,18.5,22.69,37.06,34.08,55.56,9.69,15.77,19.47,31.48,29.17,47.24C499.69,291.81,500.74,293.93,502.31,296.79Z"/><path class="cls-1" d="M334.09,403.89c-6.32,0-12.65.08-19,0-12.47-.17-20.36-8.05-20.46-20.46q-.12-13.44,0-26.86c.12-12.41,6.64-19.79,19-20.8,6.87-.56,13.81-.22,20.72-.29,3.69-.05,7.39-.07,11.08-.18,5.63-.17,11.21,0,16.54,2.1,6,2.38,9.07,7.17,10.78,13a23.87,23.87,0,0,1,.79,6.37c.08,8.6.25,17.2-.08,25.79a31.65,31.65,0,0,1-2.38,10.32c-3.08,7.65-9.45,10.75-17.31,11C347.23,404,340.66,403.89,334.09,403.89Zm.21-53.15v0c-5,0-10-.12-15.05,0-4.46.15-7.56,2.62-7.79,6.89a223.12,223.12,0,0,0-.18,22.84c.28,5.53,3.37,8.07,9,8.17q13.79.24,27.58,0c5.71-.1,9-3.63,9.21-9.29.15-4.53.29-9.06.33-13.6a43.21,43.21,0,0,0-.31-7.11c-.92-5.7-3.48-7.85-9.18-7.95C343.37,350.68,338.83,350.74,334.3,350.74Z"/><path class="cls-1" d="M131.27,335.87h15.37c.13,1.52.37,3,.37,4.53q0,18.27,0,36.56c0,9.12,2.62,11.81,11.65,11.84,6.33,0,12.66,0,19,0,7.81-.06,10.93-3.12,11-10.84,0-12.31,0-24.61,0-36.92,0-1.63.21-3.26.36-5.27h15.47A31.55,31.55,0,0,1,205,340c0,13.74.15,27.48,0,41.22a31.12,31.12,0,0,1-1.86,10.5c-3,7.76-9.09,11.94-17.37,12.14-11.23.27-22.46,0-33.69.14-13,.16-20.67-7.57-21.27-20.21-.71-14.78-.21-29.62-.19-44.43A19,19,0,0,1,131.27,335.87Z"/><path class="cls-1" d="M125.36,403.38a88.63,88.63,0,0,1-17.48.28l-5.66-9.87c-3.14-1.48-6.22-1.23-9.33-1.14-7,.2-14.09.22-21.13.26a13,13,0,0,1-2.62-.63,39.07,39.07,0,0,1,5.55-11.13c.57-.79,2.38-.9,3.64-.94,3.93-.11,7.88,0,11.82-.06,1.4,0,2.8-.2,4.13-.3.34-3-9.07-23.38-12.51-27.11-.64,1.09-1.26,2-1.76,3-7.35,14.75-14.72,29.49-22,44.29-1.31,2.68-3.07,4-6.13,3.9-4.25-.16-8.52,0-13.54,0a42.74,42.74,0,0,1,1.52-4.22q8.81-17.22,17.67-34.41c4.2-8.17,8.48-16.31,12.59-24.54,1.6-3.2,3.88-5,7.49-5.14,2.74-.09,5.48-.41,8.22-.37a8.83,8.83,0,0,1,8.47,5.48c2.65,5.62,5.49,11.15,8.28,16.69q10,19.84,20,39.66C123.53,398.94,124.28,400.9,125.36,403.38Z"/><path class="cls-1" d="M322.6,282.84c1.47-2,2.29-3.31,3.26-4.46,8.53-10.13,17.13-20.2,25.6-30.37a8.74,8.74,0,0,1,7.39-3.44c17.42.13,34.84.07,52.27.1,1.24,0,2.48.19,4.2.33a19.64,19.64,0,0,1-1.46,2.61c-9.31,11-18.67,22-28,33.05a7.2,7.2,0,0,1-5.93,2.68c-17.66,0-35.32,0-53,0C325.85,283.29,324.71,283.06,322.6,282.84Z"/><path class="cls-1" d="M258.05,351.36v51.71c-5.51,1.38-10.42.87-15.9.5-.19-1.89-.49-3.6-.5-5.31-.05-13.86,0-27.72-.06-41.58,0-1.64-.2-3.28-.33-5.35a41.09,41.09,0,0,0-4.67-.57c-6.21-.06-12.42,0-18.63-.05a44.25,44.25,0,0,1-4.72-.59c1.44-5,2.74-9.51,3.92-13.59,6.21-1.94,65-1.8,70.06.17-1.36,4.43-2.73,8.91-4.16,13.55-1.92.18-3.43.43-4.95.45-5,.06-10,0-15.05.08C261.68,350.8,260.3,351.09,258.05,351.36Z"/><path class="cls-1" d="M114.4,219.18c1.69.11,3.34.31,5,.31q38,0,76,0a26.11,26.11,0,0,1,10.72,2.22,24.48,24.48,0,0,0,9.29,2.07c21.26.16,42.52.07,63.78.08,1,0,2.07.08,3.18.13-1.73,5-4.44,7.16-9.11,7.17-20.19,0-40.38.07-60.56-.06a18.62,18.62,0,0,1-7.19-1.71,28.79,28.79,0,0,0-12.1-2.65q-36.72.18-73.46,0c-3.55,0-5.92,1-8,4.12-4.5,6.78-13.2,8-19.82,3.11-5.87-4.3-7-13.56-2.3-19.61s16-7.51,21.78.46C112.51,216.07,113.28,217.42,114.4,219.18ZM100.71,230a7.25,7.25,0,0,0,6.83-6.95,6.84,6.84,0,0,0-6.81-6.88,7.48,7.48,0,0,0-7.16,7.08C93.61,226.62,97.16,230,100.71,230Z"/><path class="cls-1" d="M162,193.46a59.48,59.48,0,0,1-4.54,6A13.62,13.62,0,0,1,140,201.29c-5.69-3.86-8-10.69-5.53-16.6,2.6-6.3,8.85-9.58,15.68-8.49,3.84.61,6.89,2.45,8.64,5.72s4.25,4,7.64,3.94c14.21-.11,28.42,0,42.63-.11a13.18,13.18,0,0,1,8.89,3c6,4.79,12.14,9.28,18.14,14a11.48,11.48,0,0,0,7.55,2.62c16.12-.08,32.24,0,48.36,0,1.74,0,3.48.21,5.26.33-.89,4.79-3.73,7.43-7.94,7.44-16.24.05-32.48.1-48.72-.06a10.78,10.78,0,0,1-5.84-2.14c-6.62-4.9-13.07-10-19.51-15.16a11,11,0,0,0-7.18-2.68c-14.21.06-28.41,0-42.62,0A28.7,28.7,0,0,0,162,193.46ZM147.56,183a6.79,6.79,0,0,0-6.89,6.74,6.6,6.6,0,0,0,6.68,6.87c3.59,0,7.14-3.29,7.25-6.63A6.81,6.81,0,0,0,147.56,183Z"/><path class="cls-1" d="M161.94,262.18c-6.77,9.19-11.69,11.48-18.68,9.06a13.59,13.59,0,0,1-9.12-13.57,13.26,13.26,0,0,1,9.76-12.74c7.38-2.05,12.45.51,17.88,9.25a35.68,35.68,0,0,0,3.93.44c11.11,0,22.22.07,33.33-.08a13.3,13.3,0,0,0,5.77-1.47c5.81-3.06,11.51-6.33,17.19-9.63a16.14,16.14,0,0,1,8.49-2.34c11,.09,22,0,33,.07,1.25,0,2.51.18,3.87.28-1.85,5.39-4.67,7.51-9.76,7.53-8.48,0-17,.08-25.44,0a15.89,15.89,0,0,0-8.2,2.07c-5.52,3.11-11,6.23-16.69,9a16.26,16.26,0,0,1-6.77,1.74c-11.11.17-22.22.07-33.33.09C165.37,261.93,163.6,262.09,161.94,262.18Zm-14.3,2.56a6.78,6.78,0,1,0,.6-13.55c-3.63-.06-7.36,3.38-7.41,6.84A6.66,6.66,0,0,0,147.64,264.74Z"/><path class="cls-1" d="M803.88,440.09c-6.29.33-12.58.75-18.87,1-9.89.34-19.79.55-29.68.82q-26.66.74-53.29,1.46c-6.79.2-13.58.5-20.37.69-1.52,0-3-.2-5-.34v-7.23C719.26,436.93,761.57,438.59,803.88,440.09Z"/><path class="cls-1" d="M178.13,443.17c-3.87,1.23-115.26-1.57-126.68-3.29.62-.07,1.24-.19,1.86-.2,10-.26,20-.48,30.08-.73L141,437.47q13.25-.35,26.49-.7c1.91-.06,3.81-.28,5.72-.36,1.49-.06,3,0,4.89,0Z"/><path class="cls-2" d="M204.1,83.12c1.42-.69,2.09-1.1,2.82-1.35q25.61-8.72,51.22-17.4c32.16-10.9,64.62-20.6,98.4-25.22,20.63-2.82,41.33-4.5,62.15-3.73a286.67,286.67,0,0,1,60.84,9c34.21,8.8,65.8,23.51,95.84,41.83a28.67,28.67,0,0,1,3,1.88c6.79,5.41,14.87,6.49,23.15,7.33,31.62,3.21,63.13,7.17,93.86,15.69,18,5,35.41,11.67,50.78,22.64a86.27,86.27,0,0,1,11,9.64,24.57,24.57,0,0,1,7.12,18.21c-.06,3.81-.44,7.62-.74,11.42a3.57,3.57,0,0,1-1.2,2.26c-.26-.83-.57-1.66-.78-2.51-.64-2.54-1.15-5.13-1.86-7.65a32.73,32.73,0,0,0-17-21,234.52,234.52,0,0,0-46.71-18,395,395,0,0,0-65.76-12.35,504.36,504.36,0,0,0-54-2.6c-14.45.08-28.91-.07-43.34.39-18.5.58-37,1.67-55.46,2.54-10.49.49-21,1.13-31.48,1.44-14.92.44-29.85.79-44.78.91a352.67,352.67,0,0,1-104.88-15.16C273,94.3,249.4,88.18,225.1,85.39c-5.92-.68-11.88-1.14-17.81-1.72C206.49,83.59,205.71,83.4,204.1,83.12ZM556.9,97a27.71,27.71,0,0,0-2.53-3.08c-2.78-2.44-5.51-5-8.48-7.15-12.77-9.45-27-16.28-41.72-22-27-10.4-55.14-15.33-84-16.43a274.28,274.28,0,0,0-45.74,2.36,343.93,343.93,0,0,0-70,16.41c-5.84,2.06-11.5,4.66-17.17,7.19-1.52.67-2.76,2-4.72,3.43a61,61,0,0,0,5.24,4.6c10.52,7.16,22.41,11.14,34.53,14.45,26.58,7.24,53.82,9.44,81.21,10a778.13,778.13,0,0,0,81.94-2.73c21.17-1.77,42.31-3.87,63.46-5.87C551.38,98,553.78,97.48,556.9,97Z"/><path class="cls-2" d="M443.8,175.56l-22.53-36.44c2.51-.22,4.21-.5,5.91-.5q37.24,0,74.51,0,66.63,0,133.25,0c1.84,0,3.67.26,6.23.46a24.22,24.22,0,0,1-2.11,2.9c-11,10.44-22,20.82-33,31.31a9,9,0,0,1-6.74,2.56q-75.24,0-150.46,0C447.34,175.86,445.8,175.68,443.8,175.56Z"/><path class="cls-2" d="M586.29,201.53c-.5,2.92-16.51,25.19-24.16,33.94-16.52.22-33.46-.08-50.41.15H480.59q-10.08-16.41-20.16-32.78l.66-1.33Q523.64,201.44,586.29,201.53Z"/><path class="cls-2" d="M740.37,335.38c-1.76,5.44-3.28,10.17-4.86,15.08-1.83.16-3.34.41-4.85.41-11.11,0-22.22,0-33.33,0-1.31,0-2.63,0-3.94,0-6.95.2-10,2.7-10.44,9.57a156.31,156.31,0,0,0-.07,18.62c.36,6.55,3.59,9.25,10.69,9.38,7.64.15,15.29,0,22.93,0a13.34,13.34,0,0,0,1.79-.12c6.38-.8,8.79-4.39,7.15-11.24a39.43,39.43,0,0,0-4.3-.49c-6-.06-11.94,0-17.91-.06-1.37,0-2.74-.25-4.85-.46,1.73-4.86,3.26-9.17,4.93-13.89,13.09-.09,25.9-.23,38.66,0a10.1,10.1,0,0,1,.71,2.24c-.09,7.76.24,15.56-.47,23.26-.82,8.73-7.18,14.76-15.79,16.1a48.65,48.65,0,0,1-7.13.6c-9.8.07-19.59.15-29.39,0a45.9,45.9,0,0,1-9.9-1.27,16.85,16.85,0,0,1-12.62-11.6,39.72,39.72,0,0,1-2-10.85c-.28-7.52-.19-15,0-22.58a36.55,36.55,0,0,1,1.34-8.81,17.65,17.65,0,0,1,13.32-13.19,38.54,38.54,0,0,1,9.19-1.19c15.53-.11,31.06-.05,46.59,0C737.12,335,738.39,335.19,740.37,335.38Z"/><path class="cls-2" d="M530.13,335c6.44,0,12.9-.24,19.33.06,8.5.4,15.26,4,18.6,12.24A27.4,27.4,0,0,1,570,356.7c.25,8.59.31,17.2-.05,25.78a32.72,32.72,0,0,1-2.47,10.68,16.56,16.56,0,0,1-12.17,10.16,42.6,42.6,0,0,1-8.84,1.17c-11,.14-22,.1-32.94,0a46.84,46.84,0,0,1-7.47-.68c-9.24-1.59-15.89-9-16.31-19.14-.41-9.89-.49-19.83,0-29.71.62-12.22,8.83-19.61,21.42-20,6.32-.19,12.65,0,19,0Zm.14,15.92v0c-4.17,0-8.34-.07-12.51,0-7.68.17-10.53,3-10.75,10.7-.15,5.36-.08,10.73,0,16.09a25.43,25.43,0,0,0,.58,4.24,6.69,6.69,0,0,0,4.93,5.59,25,25,0,0,0,6.31,1c7.15.11,14.3,0,21.45,0a28.27,28.27,0,0,0,3.57-.16c5.82-.73,8.66-3.34,9-9.22.33-6.29.18-12.62,0-18.93-.19-6.53-3-9.15-9.64-9.28C538.86,350.86,534.56,350.93,530.27,350.93Z"/><path class="cls-2" d="M657,403.45c-3.34,1.24-16.1,1.45-22.33.47l-33.26-37.63c2.07-.24,3.27-.49,4.47-.49,6.93-.06,13.85-.05,20.78-.07,1.67,0,3.35,0,5-.07,6.09-.38,9.21-6,6.39-11.37a5.75,5.75,0,0,0-5.25-3.2c-11-.09-22,0-32.95,0-.32,0-.65.26-1.53.65-.11,1.47-.36,3.19-.37,4.92,0,14,0,27.95,0,41.92,0,1.65-.23,3.29-.34,4.78-3.34,1.43-12.46,1.55-16,.35-1-2.84-1.23-63.87-.1-68.2a27.43,27.43,0,0,1,3.93-.53q24.9-.06,49.8,0a34,34,0,0,1,7.1.84c7,1.55,11.67,5.86,12.85,12.85a61.05,61.05,0,0,1,.52,16c-.8,8-6.94,13.3-15.21,14.2-1.62.18-3.23.42-5.75.75Z"/><path class="cls-2" d="M755.3,403.55v-68a34,34,0,0,1,4.38-.6q29.19-.06,58.39,0c1.14,0,2.29.23,3.86.4A90.2,90.2,0,0,1,817.68,351H772.74v10.7c1.8.16,3.3.4,4.8.41,11.35,0,22.69,0,34,.06,1.38,0,2.76.19,5,.35l-5.11,13.81c-1.91.15-3.43.36-5,.36-9.56,0-19.11,0-28.66,0-1.52,0-3,.24-5,.41v11c1.66.15,3.16.41,4.66.41,12.54,0,25.07,0,37.61.05,1.5,0,3,.23,5.27.42-1.6,5.34-3,10.17-4.38,14.66C811.7,404.82,758.86,404.73,755.3,403.55Z"/><path class="cls-2" d="M483.15,335.85l-4.42,14.65c-1.9.15-3.53.38-5.16.38-11.22,0-22.44,0-33.66.05-1.51,0-3,.21-4.9.35v10.43c1.68.16,3.16.41,4.65.41,10.75,0,21.49,0,32.23,0,1.4,0,2.79.19,4.81.35a67.53,67.53,0,0,1-5.09,14.16H434.74v27.09c-5.93,1.2-11.21.71-16.87.41a33.89,33.89,0,0,1-.54-4.3q-.06-30.08,0-60.17c0-1.28.19-2.56.28-3.69C420.61,334.72,478.44,334.48,483.15,335.85Z"/><path class="cls-2" d="M115.84,152.51c-.08-1.11-.25-2.23-.22-3.34.21-8.87,1.06-17.68,3.76-26.16a30.72,30.72,0,0,0-.51-21.38,40.64,40.64,0,0,1-1.23-4.81,37.35,37.35,0,0,1,3.75-.61c8.58-.47,17.16-1.06,25.75-1.31,16-.46,32-.86,48-1,30-.28,59.22,4.61,87.9,13.09,7.9,2.34,15.76,4.81,23.64,7.23a5.72,5.72,0,0,1,2.55,1.52,21.14,21.14,0,0,1-2.87,0c-21-3-42-6.4-63.11-9-18.13-2.23-36.39-3.4-54.69-1.85-9.26.79-18.56,1.53-27.75,2.92-19.89,3-33,14.56-40.14,33.15-1.11,2.89-2,5.87-3,8.8-.33,1-.71,1.89-1.07,2.84Z"/><path class="cls-2" d="M741.63,227.74c-1.52-.06-3.06-.19-4.6-.19-24.13,0-48.26-.08-72.39,0a20.31,20.31,0,0,0-7.91,1.73,30.35,30.35,0,0,1-12.82,2.58c-20.43-.15-40.86-.06-61.29-.09-1.6,0-3.2-.23-5.06-.38.71-3.43,3-5.29,4.68-7.84,1.45-.1,3-.29,4.5-.3q29,0,58,0a19.28,19.28,0,0,0,9-1.89,22.71,22.71,0,0,1,10.72-2.19c19,.12,38,.07,57,0,6.09,0,12.18-.14,18.26-.24a19.44,19.44,0,0,0,2.34-.33c2.61-5.46,6.76-9.11,13-9.75a13.14,13.14,0,0,1,10.49,3.71,14.38,14.38,0,0,1,0,21.05C758.39,240.39,750,238.43,741.63,227.74ZM756,216.81c-3.44.07-6.65,3.36-6.51,6.67a6.56,6.56,0,0,0,13.1-.58A6.41,6.41,0,0,0,756,216.81Z"/><path class="cls-2" d="M695.4,262.83c-1.8-.09-3.22-.23-4.64-.23-10.75,0-21.5-.07-32.24,0a14.27,14.27,0,0,1-7.82-2.06c-5.4-3.3-10.82-6.56-16.39-9.56a14.24,14.24,0,0,0-6.41-1.66c-19.58-.15-39.17-.12-58.75-.16-1.37,0-2.75-.16-5-.31l5.33-7.65c1.57-.09,3-.24,4.39-.25,18.63,0,37.26,0,55.89-.05a14.14,14.14,0,0,1,7.76,2.22c5.08,3.15,10.18,6.24,15.39,9.16a11.89,11.89,0,0,0,5.37,1.61c11.22.15,22.45.1,33.67.07a30.29,30.29,0,0,0,3.31-.36c2.69-5.37,6.59-9.14,12.82-9.68a14.12,14.12,0,0,1,10.89,3.7,14.35,14.35,0,0,1-.28,21.3,14,14,0,0,1-13,3.15C700.63,270.82,697.81,267.22,695.4,262.83Zm13.35,1.73a6.47,6.47,0,0,0,.7-12.93,6.72,6.72,0,0,0-6.64,6.16A6.51,6.51,0,0,0,708.75,264.56Z"/><path class="cls-2" d="M697.1,194.65c-1.62-.08-3.28-.24-4.94-.24-12.66,0-25.33,0-38,0a11.52,11.52,0,0,0-7.87,2.69c-6.28,5.16-12.69,10.15-19.16,15.05a9,9,0,0,1-4.82,1.89c-9.67.16-19.35.08-29,0a24.8,24.8,0,0,1-3.41-.63l5.12-7.65h5.84c6,0,11.95-.06,17.92,0a8.23,8.23,0,0,0,5.56-2c6.16-4.92,12.55-9.57,18.63-14.58a15.12,15.12,0,0,1,10.52-3.46c12.9.17,25.8.07,38.7,0,1.66,0,3.31-.15,4.75-.22,7.23-9.36,12-11.49,19.48-8.87a14.07,14.07,0,0,1,9.24,13.59,13.83,13.83,0,0,1-9.71,13.23C708.75,205.84,703.85,203.6,697.1,194.65ZM718,189.89a6.44,6.44,0,0,0-6.62-6.12,6.51,6.51,0,0,0-6.48,6.65,6.29,6.29,0,0,0,6.71,6C714.89,196.3,718.09,193,718,189.89Z"/><path class="cls-2" d="M677.23,132.44a242.87,242.87,0,0,1,63.22,19.89c0,.3-.05.6-.07.91a22.82,22.82,0,0,1-2.93.38c-12.78,0-25.55.09-38.32,0a7,7,0,0,1-4.48-1.59c-5.46-5.35-10.7-10.91-16-16.42a24.81,24.81,0,0,1-1.85-2.44Z"/><path class="cls-2" d="M522.05,453.3a66.36,66.36,0,0,1-6.69-.58c-4.43-.77-7-3.42-7.5-7.91a42.29,42.29,0,0,1,.05-8.19c.34-3.9,2.67-6.78,6.42-7.11a107.54,107.54,0,0,1,17.4,0c3.37.25,5.56,2.94,5.95,6.29a42.83,42.83,0,0,1,0,9.93c-.48,4.12-2.89,6.21-7,7a19,19,0,0,1-2.13.25C526.65,453.07,524.75,453.16,522.05,453.3Zm.76-5.74v-.11c1.55,0,3.11.11,4.65,0,2.37-.2,4.24-1.31,4.39-3.89.17-3.12,1.11-6.56-2.28-8.79a3.34,3.34,0,0,0-1.69-.5c-3.22,0-6.44-.1-9.66,0a4.07,4.07,0,0,0-3.87,3.2c-2.08,6.49.35,10,7,10.09Z"/><path class="cls-2" d="M211.05,452.6c.72-1.83,1.26-3.19,1.76-4.47,6.61-1.56,13.27.61,19.5-1.46,0-2.95-1.63-3.31-3.37-3.35-3.57-.08-7.16.07-10.73-.11-5.61-.29-8.53-4.46-6.87-9.55.87-2.64,2.7-4.44,5.42-4.53,6.43-.19,12.86-.07,19.29,0,.3,0,.6.33,1.27.72-.41,1.24-.82,2.51-1.4,4.28h-9c-2.15,0-4.29,0-6.44,0-1.49.05-2.93.29-2.9,3a17.27,17.27,0,0,0,3.6,1c3.21.17,6.43.08,9.65.13,7.51.11,8.34,5.24,6.87,10.94-.53,2.07-2.31,3-4.26,3.38a28.62,28.62,0,0,1-5,.53c-4.76.08-9.53.08-14.3.06A22.06,22.06,0,0,1,211.05,452.6Z"/><path class="cls-2" d="M644.69,429.78c-.58,1.46-1,2.61-1.73,4.32H632.68c-1.79,0-3.58,0-5.37.05-1.41.06-2.61.49-2.56,3a16,16,0,0,0,3.56,1c3.33.16,6.68,0,10,.13,5.58.2,8.41,4.11,7,9.49a6.1,6.1,0,0,1-5.1,4.89,40.38,40.38,0,0,1-5.7.51c-4.17.07-8.34,0-12.51,0-1,0-2.06-.22-3.62-.39.53-1.78,1-3.17,1.39-4.61,6.54-1.69,13.34.77,19.5-1.5-.3-3.3-2.09-3.29-3.77-3.33-3.34-.08-6.69.05-10-.13-5.2-.27-7.53-3.14-6.94-8.26.4-3.53,2.13-5.71,5.63-5.86,6.19-.26,12.4-.07,18.6,0A7.71,7.71,0,0,1,644.69,429.78Z"/><path class="cls-2" d="M279.82,453.06a62.65,62.65,0,0,1-6.43,0c-5.61-.57-8.54-3.69-8.9-9.35a44.06,44.06,0,0,1,.05-6.08c.41-5,3-8.09,8-8.51a91.1,91.1,0,0,1,13.92,0,7.73,7.73,0,0,1,7.58,6.89,32.24,32.24,0,0,1,.25,9.2c-.6,4.81-3.29,7.11-8.07,7.61-2.13.23-4.28.28-6.42.41Zm.05-18.94v0c-1.31,0-2.62-.05-3.92,0-3.62.19-5.16,1.67-5.45,5.24a21.49,21.49,0,0,0,0,3.21c.2,3,1.57,4.65,4.6,4.86a66.26,66.26,0,0,0,9.24,0,4.73,4.73,0,0,0,3.31-1.69c1.81-2.93,1.47-6.18.23-9.25-1-2.46-3.37-2.27-5.51-2.32C281.53,434.1,280.7,434.12,279.87,434.12Z"/><path class="cls-2" d="M585.93,444.16V429.29h5.26a34.62,34.62,0,0,1,.41,3.62c0,4.9,0,9.8,0,14.7,0,2.08-.06,4.28-2.54,5s-4.73.68-6.55-1.51q-4-4.83-8.09-9.58a20.07,20.07,0,0,0-4.84-4.26c-.14,5-.29,10-.44,15.28h-4.88a111,111,0,0,1,.08-22.4c4.35-2.08,6.55-1.66,9.21,1.48,2.93,3.47,5.87,6.92,8.77,10.41.75.91,1.35,1.93,2,2.9Z"/><path class="cls-2" d="M397.3,429.23c.15,1.63.35,2.91.36,4.19,0,3.21-.1,6.43,0,9.64.17,6.45-2.48,9.6-9,10a65.89,65.89,0,0,1-11.06-.19c-5.14-.58-7.52-3.47-7.64-8.65-.09-3.7-.06-7.39,0-11.09,0-1.16.26-2.32.44-3.85l5-.25c.16,1.95.38,3.55.42,5.16.08,2.86-.05,5.73.09,8.58.18,3.45,1.41,4.64,4.9,4.81a57.65,57.65,0,0,0,6.44,0c3-.19,4-1,4.33-4.14s.19-6.43.28-9.64c0-1.41.13-2.81.21-4.51Z"/><path class="cls-2" d="M423.45,433.72V429c8.87-.3,17.58-.24,26.57,0v4.66l-10.3,1v17.89l-5.35.49c-1.59-6.12.06-12.16-1.28-18.49Z"/><path class="cls-2" d="M320.86,429.18h5.76v18.17l17.64.36c-.12,1.85-.21,3.28-.32,5-6.89,0-13.4.12-19.9-.12a4.08,4.08,0,0,1-3-2.56C320,443.15,320.77,436.3,320.86,429.18Z"/><path class="cls-2" d="M476.35,429.23h5.25v23.32h-5.13A146.4,146.4,0,0,1,476.35,429.23Z"/></svg>